<svg width="431" height="381" viewBox="0 0 431 381" fill="none" xmlns="http://www.w3.org/2000/svg">
<path d="M387.814 354.669H359.264V354.927H387.814V354.669Z" fill="#004965"/>
<path d="M358.402 345.087H341.861V345.345H358.402V345.087Z" fill="#004965"/>
<path d="M82.4503 346.822H45.2205V347.08H82.4503V346.822Z" fill="#004965"/>
<path d="M95.5872 346.822H90.1307V347.08H95.5872V346.822Z" fill="#004C68"/>
<path d="M194.079 351.179H113.327V351.437H194.079V351.179Z" fill="#004965"/>
<path d="M204.294 292.004H37.859C36.5536 292.004 35.3017 291.383 34.3786 290.277C33.4556 289.171 32.937 287.672 32.937 286.108V5.84421C32.9484 4.2895 33.472 2.8031 34.3938 1.70856C35.3156 0.614016 36.5611 -5.96047e-05 37.859 4.33932e-09H204.294C205.599 4.33934e-09 206.851 0.621167 207.774 1.72685C208.697 2.83253 209.216 4.33216 209.216 5.89584V286.108C209.216 287.672 208.697 289.171 207.774 290.277C206.851 291.383 205.599 292.004 204.294 292.004V292.004ZM37.859 0.20651C36.6115 0.209239 35.4157 0.804085 34.5335 1.86077C33.6514 2.91745 33.1548 4.34984 33.1525 5.84421V286.108C33.1548 287.603 33.6514 289.035 34.5335 290.092C35.4157 291.148 36.6115 291.743 37.859 291.746H204.294C205.542 291.743 206.737 291.148 207.619 290.092C208.502 289.035 208.998 287.603 209.001 286.108V5.84421C208.998 4.34984 208.502 2.91745 207.619 1.86077C206.737 0.804085 205.542 0.209239 204.294 0.20651H37.859Z" fill="#004965"/>
<path d="M390.753 292.004H224.301C222.996 292.001 221.746 291.379 220.823 290.274C219.901 289.169 219.381 287.671 219.379 286.108V5.84421C219.393 4.29035 219.917 2.80551 220.838 1.71154C221.76 0.617575 223.004 0.00263123 224.301 0H390.753C392.048 0.00537388 393.289 0.62185 394.207 1.71581C395.125 2.80977 395.647 4.29307 395.658 5.84421V286.108C395.658 287.668 395.142 289.165 394.222 290.27C393.303 291.375 392.056 291.999 390.753 292.004V292.004ZM224.301 0.20651C223.053 0.209239 221.858 0.804085 220.976 1.86077C220.093 2.91745 219.597 4.34984 219.594 5.84421V286.108C219.597 287.603 220.093 289.035 220.976 290.092C221.858 291.148 223.053 291.743 224.301 291.746H390.753C392.001 291.743 393.197 291.148 394.079 290.092C394.961 289.035 395.457 287.603 395.46 286.108V5.84421C395.457 4.34984 394.961 2.91745 394.079 1.86077C393.197 0.804085 392.001 0.209239 390.753 0.20651H224.301Z" fill="#004965"/>
<path d="M431 338.056H0V338.314H431V338.056Z" fill="#004965"/>
<path d="M325.689 165.373H375.935C377.536 165.368 379.11 164.888 380.516 163.973C381.923 163.059 383.117 161.74 383.992 160.135C384.866 158.53 385.394 156.689 385.527 154.779C385.66 152.869 385.394 150.949 384.754 149.193C381.418 140.013 374.323 135.036 367.91 141.965C358.264 152.29 358.721 132.228 347.179 135.047C337.085 137.514 338.473 149.42 332.292 151.867C326.112 154.314 317.578 162.636 325.689 165.373Z" fill="#06546E"/>
<path d="M246.084 57.2029H282.736C283.902 57.2022 285.05 56.8546 286.076 56.1915C287.102 55.5284 287.975 54.5704 288.616 53.4035C289.257 52.2367 289.646 50.8975 289.748 49.5061C289.85 48.1148 289.662 46.7148 289.201 45.4319C286.762 38.7307 281.581 35.1064 276.909 40.1246C269.866 47.7035 270.194 33.0207 261.772 35.0858C254.402 36.8824 255.419 45.5765 250.902 47.3524C246.385 49.1284 240.17 55.1998 246.084 57.2029Z" fill="#06546E"/>
<path d="M318.664 338.179H312.63V107.044C312.635 100.823 314.699 94.8579 318.371 90.4579C322.042 86.058 327.021 83.5823 332.215 83.5741H337.551V90.8019H332.215C328.621 90.8074 325.176 92.5207 322.635 95.5657C320.095 98.6108 318.666 102.739 318.664 107.044V338.179Z" fill="#004C68"/>
<path d="M360.428 46.4645H337.551V123.885H360.428V46.4645Z" fill="#004C68"/>
<path d="M337.551 123.854H360.428V123.998C360.428 125.414 359.959 126.772 359.123 127.773C358.287 128.774 357.153 129.337 355.972 129.337H342.007C340.825 129.337 339.692 128.774 338.856 127.773C338.02 126.772 337.551 125.414 337.551 123.998V123.854Z" fill="#004562"/>
<path d="M348.989 70.9669C352.907 70.9669 356.084 67.1623 356.084 62.469C356.084 57.7758 352.907 53.9712 348.989 53.9712C345.071 53.9712 341.895 57.7758 341.895 62.469C341.895 67.1623 345.071 70.9669 348.989 70.9669Z" fill="#004C68"/>
<path d="M348.989 68.9018C352.907 68.9018 356.084 65.0972 356.084 60.404C356.084 55.7107 352.907 51.9061 348.989 51.9061C345.071 51.9061 341.895 55.7107 341.895 60.404C341.895 65.0972 345.071 68.9018 348.989 68.9018Z" fill="#0B5771"/>
<path d="M348.989 94.1992C352.907 94.1992 356.084 90.3946 356.084 85.7013C356.084 81.0081 352.907 77.2035 348.989 77.2035C345.071 77.2035 341.895 81.0081 341.895 85.7013C341.895 90.3946 345.071 94.1992 348.989 94.1992Z" fill="#004C68"/>
<path d="M348.989 92.1341C352.907 92.1341 356.084 88.3295 356.084 83.6363C356.084 78.943 352.907 75.1384 348.989 75.1384C345.071 75.1384 341.895 78.943 341.895 83.6363C341.895 88.3295 345.071 92.1341 348.989 92.1341Z" fill="#0B5771"/>
<path d="M348.989 117.431C352.907 117.431 356.084 113.627 356.084 108.934C356.084 104.24 352.907 100.436 348.989 100.436C345.071 100.436 341.895 104.24 341.895 108.934C341.895 113.627 345.071 117.431 348.989 117.431Z" fill="#004C68"/>
<path d="M348.989 115.366C352.907 115.366 356.084 111.562 356.084 106.868C356.084 102.175 352.907 98.3706 348.989 98.3706C345.071 98.3706 341.895 102.175 341.895 106.868C341.895 111.562 345.071 115.366 348.989 115.366Z" fill="#0B5771"/>
<path d="M376.616 270.579H336.801V291.395H376.616V270.579Z" fill="#004965"/>
<path d="M339.568 267.698H334.025V294.276H339.568V267.698Z" fill="#01506B"/>
<path d="M379.383 267.698H373.841V294.276H379.383V267.698Z" fill="#01506B"/>
<path d="M333.042 277.703H336.801V284.342H333.042C332.567 284.342 332.111 284.116 331.775 283.713C331.438 283.311 331.249 282.764 331.249 282.195V279.768C331.267 279.213 331.464 278.688 331.798 278.303C332.133 277.918 332.578 277.703 333.042 277.703V277.703Z" fill="#004965"/>
<path d="M380.358 284.312H376.599V277.672H380.358C380.833 277.672 381.289 277.899 381.625 278.301C381.962 278.704 382.15 279.25 382.15 279.82V282.164C382.15 282.733 381.962 283.28 381.625 283.683C381.289 284.085 380.833 284.312 380.358 284.312V284.312Z" fill="#01506B"/>
<path d="M367.402 329.382H346.007V257.414C346.007 255.731 346.284 254.065 346.821 252.51C347.359 250.955 348.147 249.543 349.14 248.353C350.133 247.163 351.313 246.219 352.611 245.575C353.908 244.931 355.299 244.6 356.704 244.6V244.6C358.109 244.598 359.501 244.929 360.799 245.572C362.098 246.216 363.277 247.16 364.271 248.35C365.265 249.54 366.052 250.953 366.59 252.508C367.127 254.064 367.403 255.73 367.402 257.414V329.382Z" fill="#01506B"/>
<path d="M347.446 325.046H365.971C367.375 325.048 368.721 325.718 369.714 326.909C370.706 328.1 371.263 329.713 371.263 331.396V338.18H342.145V331.396C342.145 329.712 342.704 328.096 343.698 326.905C344.692 325.715 346.04 325.046 347.446 325.046V325.046Z" fill="#004965"/>
<path d="M356.704 291.911C361.76 291.911 365.859 287.002 365.859 280.945C365.859 274.889 361.76 269.98 356.704 269.98C351.648 269.98 347.55 274.889 347.55 280.945C347.55 287.002 351.648 291.911 356.704 291.911Z" fill="#06546E"/>
<path d="M358.885 280.946C358.887 281.463 358.76 281.969 358.522 282.4C358.283 282.831 357.943 283.167 357.545 283.366C357.146 283.566 356.708 283.619 356.284 283.519C355.86 283.42 355.471 283.172 355.165 282.807C354.859 282.442 354.651 281.976 354.566 281.469C354.481 280.962 354.524 280.436 354.689 279.959C354.853 279.481 355.133 279.072 355.492 278.784C355.851 278.497 356.273 278.344 356.704 278.344C357.281 278.344 357.835 278.617 358.243 279.105C358.652 279.593 358.883 280.254 358.885 280.946V280.946Z" fill="#004965"/>
<path d="M342.145 261.058C342.145 260.177 342.437 259.331 342.958 258.707C343.479 258.084 344.185 257.734 344.921 257.734H368.496C369.231 257.736 369.935 258.088 370.453 258.711C370.972 259.334 371.263 260.178 371.263 261.058V261.058C371.263 261.938 370.972 262.783 370.453 263.406C369.935 264.029 369.231 264.381 368.496 264.383H344.921C344.185 264.383 343.479 264.033 342.958 263.409C342.437 262.786 342.145 261.94 342.145 261.058V261.058Z" fill="#004C68"/>
<path d="M352.049 297.879C352.784 297.879 353.489 298.228 354.009 298.849C354.529 299.471 354.823 300.314 354.825 301.194V318.365C354.825 318.801 354.753 319.234 354.614 319.637C354.474 320.041 354.27 320.407 354.012 320.716C353.754 321.025 353.448 321.27 353.112 321.437C352.775 321.604 352.414 321.69 352.049 321.69V321.69C351.315 321.687 350.611 321.335 350.092 320.712C349.574 320.089 349.282 319.245 349.282 318.365V301.194C349.282 300.315 349.574 299.472 350.093 298.85C350.612 298.228 351.316 297.879 352.049 297.879V297.879Z" fill="#004965"/>
<path d="M361.359 297.879C362.094 297.879 362.798 298.228 363.319 298.849C363.839 299.471 364.132 300.314 364.135 301.194V318.365C364.135 318.801 364.063 319.234 363.923 319.637C363.784 320.041 363.579 320.407 363.322 320.716C363.064 321.025 362.758 321.27 362.421 321.437C362.084 321.604 361.724 321.69 361.359 321.69V321.69C360.624 321.687 359.921 321.335 359.402 320.712C358.883 320.089 358.592 319.245 358.592 318.365V301.194C358.592 300.315 358.884 299.472 359.402 298.85C359.921 298.228 360.625 297.879 361.359 297.879V297.879Z" fill="#004965"/>
<path d="M62.1071 338.334H59.9866C59.8391 338.335 59.6931 338.299 59.5574 338.23C59.4217 338.161 59.2991 338.06 59.1968 337.932C59.0946 337.805 59.0149 337.654 58.9625 337.489C58.9101 337.324 58.886 337.148 58.8918 336.971L61.202 274.575H66.6326L63.1846 337.116C63.1652 337.444 63.0437 337.751 62.8441 337.977C62.6445 338.202 62.3815 338.33 62.1071 338.334Z" fill="#004C68"/>
<path d="M71.0115 338.334H68.891C68.7439 338.335 68.5983 338.299 68.4631 338.23C68.3278 338.161 68.2057 338.059 68.1041 337.932C68.0026 337.804 67.9237 337.653 67.8723 337.488C67.8208 337.323 67.7979 337.147 67.8049 336.971L70.0892 274.575H75.537L72.089 337.116C72.0716 337.445 71.9507 337.753 71.7507 337.979C71.5507 338.206 71.2866 338.332 71.0115 338.334V338.334Z" fill="#004C68"/>
<path d="M95.751 338.334H97.8715C98.0189 338.335 98.1649 338.299 98.3006 338.23C98.4363 338.161 98.559 338.06 98.6612 337.932C98.7635 337.805 98.8432 337.654 98.8956 337.489C98.948 337.324 98.972 337.148 98.9662 336.971L96.6733 274.575H91.2255L94.6735 337.116C94.6909 337.445 94.8118 337.753 95.0118 337.979C95.2118 338.206 95.476 338.332 95.751 338.334V338.334Z" fill="#004C68"/>
<path d="M104.526 338.334H106.647C106.794 338.335 106.94 338.299 107.076 338.23C107.211 338.161 107.334 338.06 107.436 337.932C107.539 337.805 107.618 337.654 107.671 337.489C107.723 337.324 107.747 337.148 107.741 336.971L105.457 274.575H99.992L103.44 337.116C103.458 337.447 103.58 337.757 103.782 337.983C103.983 338.209 104.25 338.335 104.526 338.334V338.334Z" fill="#004C68"/>
<path d="M75.7698 237.868H71.1495V267.109H75.7698V237.868Z" fill="#004C68"/>
<path d="M96.1992 237.868H91.5789V267.109H96.1992V237.868Z" fill="#004C68"/>
<path d="M111.845 273.346C111.845 279.81 99.3628 279.2 83.9674 279.2C68.5721 279.2 56.0817 279.81 56.0817 273.346C56.0817 266.882 68.5635 261.637 83.9674 261.637C99.3714 261.637 111.845 266.872 111.845 273.346Z" fill="#004C68"/>
<path d="M97.225 241.048H70.684C68.6624 241.047 66.7153 240.134 65.231 238.49C63.7467 236.846 62.8344 234.592 62.676 232.178L61.814 219.499C61.7335 218.18 61.8807 216.855 62.2466 215.607C62.6125 214.359 63.1891 213.215 63.9406 212.247C64.692 211.278 65.6021 210.505 66.614 209.976C67.6259 209.447 68.718 209.174 69.822 209.173H98.0008C99.1052 209.172 100.198 209.445 101.21 209.973C102.223 210.501 103.133 211.274 103.885 212.243C104.637 213.213 105.213 214.357 105.579 215.606C105.944 216.854 106.091 218.179 106.009 219.499L105.147 232.178C104.992 234.576 104.092 236.816 102.626 238.458C101.159 240.1 99.2322 241.024 97.225 241.048Z" fill="#01506B"/>
<path d="M90.3893 120.932H59.0729V150.504H90.3893V120.932Z" fill="#004C68"/>
<path d="M59.0729 120.932H57.3834V150.504H59.0729V120.932Z" fill="#00405D"/>
<path d="M87.1913 123.947H62.2623V147.489H87.1913V123.947Z" fill="#06546E"/>
<path d="M85.1484 125.888H64.3224V145.558H85.1484V125.888Z" fill="#004965"/>
<path d="M131.317 72.939H96.8457V125.299H131.317V72.939Z" fill="#004965"/>
<path d="M96.8457 72.939H95.1993V125.299H96.8457V72.939Z" fill="#00405D"/>
<path d="M127.8 78.2773H100.363V119.961H127.8V78.2773Z" fill="#01506B"/>
<path d="M125.542 81.7054H102.621V116.533H125.542V81.7054Z" fill="#06546E"/>
<path d="M109.543 93.9616C109.543 93.9616 113.594 100.828 115.68 100.714C117.585 100.622 120.852 93.9616 120.852 93.9616C120.852 93.9616 116.801 87.0952 114.715 87.2088C112.784 87.343 109.543 93.9616 109.543 93.9616Z" fill="#004965"/>
<path d="M120.146 109.202C121.344 106.435 115.086 100.622 112.482 100.756C110.095 100.88 105.121 106.569 106.052 109.202C107.414 113.095 118.525 112.95 120.146 109.202Z" fill="#004C68"/>
<path d="M68.6583 105.32C77.2513 105.32 84.2174 93.6839 84.2174 79.3305C84.2174 64.9771 77.2513 53.3413 68.6583 53.3413C60.0652 53.3413 53.0992 64.9771 53.0992 79.3305C53.0992 93.6839 60.0652 105.32 68.6583 105.32Z" fill="#00405D"/>
<path d="M70.5116 105.32C79.1047 105.32 86.0707 93.6839 86.0707 79.3305C86.0707 64.9771 79.1047 53.3413 70.5116 53.3413C61.9186 53.3413 54.9525 64.9771 54.9525 79.3305C54.9525 93.6839 61.9186 105.32 70.5116 105.32Z" fill="#004965"/>
<path d="M70.5116 101.468C77.8335 101.468 83.7692 91.5568 83.7692 79.3304C83.7692 67.104 77.8335 57.1926 70.5116 57.1926C63.1896 57.1926 57.254 67.104 57.254 79.3304C57.254 91.5568 63.1896 101.468 70.5116 101.468Z" fill="#004562"/>
<path d="M70.5116 99.1142C77.0528 99.1142 82.3555 90.2567 82.3555 79.3306C82.3555 68.4044 77.0528 59.547 70.5116 59.547C63.9704 59.547 58.6677 68.4044 58.6677 79.3306C58.6677 90.2567 63.9704 99.1142 70.5116 99.1142Z" fill="#06546E"/>
<path d="M74.2268 90.0897C75.4608 88.6776 76.426 86.9633 77.0568 85.0638C77.6875 83.1643 77.9689 81.1243 77.8817 79.0827C77.8817 79.0827 72.9941 78.3909 73.1407 88.2001C73.1407 88.2001 67.6325 81.3543 69.2617 77.0176C71.8477 70.2338 71.8477 70.2338 70.003 66.0004C70.003 66.0004 65.2017 68.3236 67.417 76.1503C67.4609 78.1909 67.7186 80.2168 68.1842 82.1804C68.1842 82.1804 63.3484 76.6253 61.7881 80.2598C61.7881 80.2598 64.3741 86.135 68.1842 83.6982C68.1583 83.6982 72.408 92.6917 74.2268 90.0897Z" fill="#004965"/>
<path d="M211.345 380.71C303.65 380.71 378.478 375.477 378.478 369.022C378.478 362.566 303.65 357.333 211.345 357.333C119.04 357.333 44.212 362.566 44.212 369.022C44.212 375.477 119.04 380.71 211.345 380.71Z" fill="#004965"/>
<path d="M277.374 145.186C275.056 142.295 273.409 136.926 272.608 133.467L268.944 143.937C269.533 144.752 269.96 145.716 270.193 146.757C270.426 147.797 270.459 148.888 270.289 149.946C270.289 150.039 270.159 151.795 267.703 153.591C267.703 153.591 268.142 164.185 273.409 162.688C278.676 161.191 281.538 148.614 281.538 148.614L281.917 145.052C281.917 145.052 279.521 147.468 277.374 145.186Z" fill="#FFC3BD"/>
<path opacity="0.1" d="M269.866 141.376L269.004 143.937C269.694 144.927 270.162 146.11 270.366 147.375C272.78 143.968 273.047 138.454 273.047 138.454L269.866 141.376Z" fill="black"/>
<path d="M231.628 192.332C231.628 192.332 245.842 193.024 252.152 190.959C258.462 188.894 263.824 175.667 263.824 175.667L256.626 170.907L249.471 183.659L231.645 187.077L226.525 182.761C226.525 182.761 216.181 180.117 216.181 181.728C216.181 183.339 221.517 184.64 221.517 184.64C221.517 184.64 221.836 192.26 224.025 192.498C226.215 192.735 231.628 192.332 231.628 192.332Z" fill="#FFC3BD"/>
<path d="M266.418 155.915C266.418 155.915 260.264 156.947 256.238 165.879C252.213 174.81 255.652 175.171 259.057 177.691C262.462 180.21 264.169 180.789 265.737 175.275C267.306 169.761 270.401 155.347 266.418 155.915Z" fill="#004965"/>
<path opacity="0.1" d="M266.401 172.755L264.117 167.18L260.281 166.828C260.095 170.773 260.162 174.729 260.479 178.661C262.97 180.221 264.41 179.911 265.737 175.254C265.936 174.552 266.168 173.705 266.401 172.755Z" fill="black"/>
<path d="M254.143 120.333C254.143 120.333 249.661 122.233 252.626 127.695C255.592 133.157 249.609 136.874 259.652 138.382C269.694 139.889 260.005 118.134 260.005 118.134L254.143 120.333Z" fill="#263238"/>
<path opacity="0.3" d="M254.143 120.333C254.143 120.333 249.661 122.233 252.626 127.695C255.592 133.157 249.609 136.874 259.652 138.382C269.694 139.889 260.005 118.134 260.005 118.134L254.143 120.333Z" fill="black"/>
<path d="M292.752 154.613C291.253 142.925 285.572 143.132 280.038 145.744C280.426 150.143 280.435 155.76 275.116 159.26C270.332 162.358 268.47 157.195 268.367 152.837C263.35 156.255 259.16 160.633 260.531 169.358C261.315 174.314 264.97 179.756 268.711 186.664C273.185 194.924 277.788 204.3 277.788 204.3L303.355 188.708C303.355 188.708 294.382 167.272 292.752 154.613Z" fill="#004965"/>
<path opacity="0.2" d="M292.752 154.613C292.571 153.107 292.262 151.626 291.83 150.194L287.96 149.409L285.943 153.25C285.943 153.25 290.21 162.254 295.882 167.944C294.497 163.626 293.449 159.163 292.752 154.613Z" fill="black"/>
<path d="M299.588 150.896C299.588 150.896 308.363 158.124 311.044 160.86C315.035 164.99 325.784 178.899 325.784 178.899L332.379 183.215V188.212L329.258 190.794C329.03 190.982 328.773 191.115 328.502 191.183C328.231 191.251 327.952 191.255 327.68 191.192C327.408 191.13 327.149 191.003 326.918 190.819C326.687 190.636 326.489 190.399 326.336 190.123L322.336 182.967C322.336 182.967 312.475 172.177 308.846 169.1C305.777 166.498 295.83 160.107 295.83 160.107L299.588 150.896Z" fill="#FFC3BD"/>
<path d="M283.391 144.66C283.391 144.66 289.046 141.614 293.864 144.66C298.683 147.706 300.812 149.378 300.338 153.054C299.864 156.73 298.097 164.33 294.925 163.07C291.753 161.81 281.633 149.781 283.391 144.66Z" fill="#004965"/>
<path d="M273.944 124.752C274.599 132.672 275.021 135.997 272.263 140.653C268.108 147.664 259.85 146.9 257.238 139.383C254.876 132.61 254.204 120.798 260.186 116.461C261.499 115.481 263 114.92 264.546 114.833C266.091 114.746 267.629 115.136 269.013 115.965C270.397 116.794 271.58 118.034 272.449 119.567C273.319 121.1 273.845 122.875 273.978 124.721L273.944 124.752Z" fill="#FFC3BD"/>
<path d="M260.057 130.803C259.78 132.35 259.328 133.843 258.712 135.243C259.013 135.425 259.343 135.526 259.679 135.538C260.016 135.551 260.351 135.475 260.66 135.315L260.057 130.803Z" fill="#ED893E"/>
<path d="M264.47 125.516C264.51 125.489 264.543 125.45 264.565 125.403C264.597 125.331 264.605 125.247 264.588 125.169C264.57 125.09 264.528 125.022 264.47 124.979C264.048 124.674 263.571 124.494 263.079 124.457C262.587 124.419 262.094 124.524 261.643 124.763C261.582 124.804 261.536 124.872 261.515 124.953C261.494 125.033 261.5 125.12 261.531 125.196C261.562 125.268 261.616 125.323 261.68 125.348C261.745 125.373 261.815 125.367 261.876 125.33C262.252 125.141 262.661 125.06 263.069 125.096C263.476 125.132 263.871 125.283 264.22 125.537C264.26 125.56 264.304 125.57 264.348 125.567C264.391 125.563 264.434 125.546 264.47 125.516V125.516Z" fill="#263238"/>
<path d="M254.6 127.519L254.712 127.416C254.968 127.04 255.294 126.742 255.664 126.545C256.034 126.347 256.437 126.257 256.842 126.28C256.911 126.292 256.982 126.271 257.038 126.22C257.095 126.17 257.133 126.095 257.143 126.012V126.012C257.146 125.928 257.123 125.846 257.079 125.781C257.034 125.716 256.971 125.674 256.902 125.661C256.412 125.628 255.922 125.735 255.473 125.972C255.023 126.209 254.627 126.569 254.316 127.024C254.268 127.083 254.241 127.163 254.241 127.246C254.241 127.329 254.268 127.408 254.316 127.468C254.354 127.508 254.401 127.534 254.451 127.545C254.501 127.556 254.553 127.551 254.6 127.53V127.519Z" fill="#263238"/>
<path d="M263.677 129.068C263.763 129.698 263.548 130.266 263.195 130.338C262.841 130.411 262.496 129.956 262.419 129.306C262.341 128.655 262.539 128.108 262.884 128.036C263.229 127.963 263.582 128.387 263.677 129.068Z" fill="#263238"/>
<path d="M257.652 130.194C257.738 130.824 257.523 131.391 257.178 131.464C256.833 131.536 256.488 131.071 256.393 130.431C256.299 129.791 256.523 129.223 256.867 129.161C257.212 129.099 257.574 129.543 257.652 130.194Z" fill="#263238"/>
<path d="M257.023 129.161L255.686 128.975C255.686 128.975 256.505 130.039 257.023 129.161Z" fill="#263238"/>
<path d="M263.048 128.036L261.712 127.85C261.712 127.85 262.531 128.872 263.048 128.036Z" fill="#263238"/>
<path d="M264.962 138.248C265.289 138.057 265.601 137.828 265.893 137.566C265.913 137.549 265.931 137.527 265.944 137.501C265.957 137.475 265.966 137.447 265.97 137.417C265.974 137.387 265.973 137.357 265.967 137.327C265.961 137.298 265.951 137.27 265.936 137.246V137.246C265.899 137.206 265.852 137.184 265.802 137.184C265.753 137.184 265.705 137.206 265.668 137.246C265.025 137.837 264.275 138.238 263.478 138.417C262.682 138.596 261.861 138.549 261.083 138.279C261.059 138.267 261.035 138.261 261.009 138.261C260.984 138.26 260.959 138.266 260.936 138.278C260.913 138.289 260.892 138.306 260.874 138.328C260.856 138.349 260.842 138.375 260.833 138.403C260.822 138.431 260.816 138.461 260.816 138.493C260.815 138.524 260.821 138.555 260.831 138.583C260.842 138.611 260.858 138.637 260.877 138.657C260.897 138.678 260.92 138.693 260.945 138.702C262.282 139.182 263.723 139.019 264.962 138.248V138.248Z" fill="#263238"/>
<path d="M259.686 120.416C257.1 120.787 250.204 123.141 251.299 115.439C252.394 107.736 264.712 103.884 270.435 108.861C276.159 113.838 280.555 113.467 285.089 109.429C289.623 105.392 291.83 106.982 297.64 110.741C297.64 110.741 294.502 117.225 295.994 121.169C295.994 121.169 292.546 117.039 286.106 121.448C286.106 121.448 293.554 119.084 296.381 125.248C296.381 125.248 295.597 132.052 298.338 136.1C301.079 140.148 298.261 144.939 287.753 140.055C277.245 135.171 276.124 139.652 273.702 137.494C271.28 135.336 269.461 129.492 269.082 125.248C268.841 122.192 267.694 119.28 259.686 120.416Z" fill="#263238"/>
<path d="M274.849 130.194C274.766 130.95 274.56 131.68 274.242 132.34C273.924 133.001 273.501 133.581 272.995 134.045C271.642 135.264 270.34 134.045 270.203 132.073C270.073 130.349 270.625 127.623 272.237 127.148C272.592 127.06 272.96 127.08 273.307 127.204C273.654 127.329 273.97 127.555 274.227 127.862C274.483 128.169 274.672 128.548 274.776 128.964C274.88 129.38 274.896 129.82 274.823 130.245L274.849 130.194Z" fill="#FFC3BD"/>
<path d="M309.458 349C309.682 355.598 309.846 360.833 309.846 360.833L303.726 361.67C303.726 361.67 303.14 357.209 302.26 350.363L309.458 349Z" fill="#FFC3BD"/>
<path d="M301.036 360.08C300.405 360.218 299.754 360.071 299.209 359.667C299.144 359.557 299.108 359.425 299.108 359.29C299.108 359.155 299.144 359.023 299.209 358.913C299.251 358.807 299.311 358.713 299.385 358.637C299.46 358.561 299.546 358.503 299.64 358.469C300.648 358.056 302.855 359.347 302.95 359.409C302.977 359.425 303 359.45 303.015 359.481C303.03 359.512 303.038 359.548 303.036 359.584C303.033 359.62 303.02 359.653 303 359.679C302.98 359.705 302.953 359.722 302.924 359.729C302.305 359.915 301.673 360.032 301.036 360.08V360.08ZM299.993 358.738C299.899 358.737 299.805 358.758 299.717 358.8C299.658 358.814 299.602 358.844 299.554 358.889C299.506 358.934 299.467 358.992 299.442 359.058C299.347 359.285 299.39 359.388 299.442 359.44C299.752 359.894 301.295 359.791 302.424 359.533C301.657 359.086 300.826 358.817 299.976 358.738H299.993Z" fill="#004965"/>
<path d="M302.872 359.729H302.812C302.062 359.398 300.51 357.922 300.597 357.085C300.597 356.889 300.709 356.641 301.105 356.559C301.255 356.522 301.409 356.524 301.558 356.565C301.707 356.606 301.846 356.685 301.967 356.796C302.568 357.552 302.952 358.518 303.062 359.553C303.068 359.579 303.068 359.605 303.062 359.631C303.056 359.656 303.045 359.679 303.029 359.697C303.013 359.715 302.993 359.728 302.971 359.733C302.95 359.739 302.928 359.737 302.907 359.729H302.872ZM301.217 356.879H301.14C300.881 356.879 300.864 357.054 300.864 357.096C300.864 357.591 301.881 358.769 302.665 359.243C302.55 358.42 302.225 357.659 301.735 357.065C301.586 356.931 301.403 356.866 301.217 356.879V356.879Z" fill="#004965"/>
<path d="M303.467 358.655L310.139 358.149C310.262 358.138 310.383 358.179 310.484 358.264C310.584 358.348 310.657 358.472 310.691 358.613L312.251 365.026C312.289 365.16 312.304 365.303 312.293 365.445C312.283 365.587 312.249 365.724 312.192 365.849C312.136 365.975 312.058 366.084 311.964 366.172C311.87 366.259 311.763 366.322 311.648 366.358C311.585 366.367 311.521 366.367 311.458 366.358C309.053 366.492 306.898 366.502 303.907 366.729C300.373 367.008 301.321 367.442 297.14 367.834C294.64 368.061 294.002 364.736 295.054 364.437C299.873 363.332 300.286 361.536 302.045 359.274C302.444 358.876 302.947 358.657 303.467 358.655V358.655Z" fill="#263238"/>
<path d="M305.751 193.272L304.588 188.264C304.551 188.123 304.49 187.993 304.408 187.883C304.326 187.772 304.225 187.684 304.113 187.625C304 187.565 303.878 187.535 303.755 187.537C303.631 187.538 303.51 187.572 303.398 187.634L277.314 203.412C277.209 203.48 277.117 203.573 277.043 203.686C276.97 203.799 276.917 203.929 276.888 204.068C276.859 204.207 276.854 204.352 276.874 204.493C276.894 204.634 276.938 204.769 277.004 204.888L279.641 209.483C279.641 209.483 286.115 262.267 288.77 279.82C291.511 297.714 301.321 351.262 301.321 351.262C301.352 351.452 301.445 351.621 301.578 351.731C301.712 351.841 301.876 351.884 302.036 351.85L309.63 350.384C309.775 350.355 309.906 350.268 310.002 350.136C310.098 350.004 310.152 349.836 310.156 349.661C310.242 345.098 310.156 316.248 307.76 295.835C306.898 288.545 304.846 282.701 304.148 278.684C303.381 274.255 304.571 271.281 305.01 260.615C305.958 240.583 307.01 208.884 305.751 193.272Z" fill="#263238"/>
<path opacity="0.5" d="M305.07 260.656C305.372 253.934 305.682 245.922 305.932 237.641L298.364 222.359L294.994 213.334L291.804 218.497C291.804 218.497 297.442 246.903 304.846 264.745C304.924 263.547 305.01 262.184 305.07 260.656Z" fill="black"/>
<path d="M362.471 323.745C365.643 329.145 367.703 332.697 367.703 332.697L362.902 337.364L356.558 328.814L362.471 323.745Z" fill="#FFC3BD"/>
<path d="M359.592 337.725C359.124 338.25 358.509 338.548 357.868 338.561C357.76 338.518 357.666 338.435 357.599 338.324C357.532 338.212 357.497 338.079 357.497 337.942C357.48 337.708 357.538 337.475 357.661 337.291C358.325 336.259 360.764 335.949 360.876 335.928C360.907 335.924 360.938 335.931 360.964 335.95C360.991 335.969 361.012 335.997 361.023 336.032C361.039 336.061 361.048 336.095 361.048 336.13C361.048 336.165 361.039 336.199 361.023 336.228C360.582 336.774 360.103 337.275 359.592 337.725V337.725ZM358.101 337.271C358.024 337.335 357.954 337.412 357.894 337.498C357.854 337.553 357.825 337.617 357.807 337.686C357.789 337.756 357.784 337.829 357.79 337.901C357.79 338.148 357.894 338.21 357.954 338.231C358.42 338.407 359.678 337.322 360.54 336.372C359.686 336.482 358.858 336.787 358.101 337.271V337.271Z" fill="#004965"/>
<path d="M360.98 336.238H360.928C360.144 336.445 358.17 336.238 357.868 335.453C357.782 335.278 357.756 334.999 358.058 334.679C358.164 334.561 358.289 334.471 358.425 334.412C358.561 334.353 358.706 334.328 358.851 334.338C359.701 334.587 360.464 335.151 361.031 335.949C361.044 335.976 361.051 336.006 361.051 336.037C361.051 336.068 361.044 336.098 361.031 336.125C361.025 336.168 361.007 336.208 360.98 336.238V336.238ZM358.299 334.917L358.23 334.968C358.032 335.175 358.075 335.288 358.092 335.33C358.308 335.753 359.704 336.073 360.583 335.959C360.107 335.347 359.489 334.919 358.808 334.731C358.625 334.719 358.445 334.785 358.299 334.917V334.917Z" fill="#004965"/>
<path d="M360.988 334.958L366.376 330.198C366.471 330.106 366.59 330.055 366.712 330.055C366.834 330.055 366.953 330.106 367.048 330.198L371.246 334.586C371.339 334.674 371.416 334.784 371.472 334.909C371.528 335.034 371.562 335.171 371.572 335.313C371.582 335.454 371.567 335.597 371.529 335.731C371.491 335.865 371.43 335.989 371.35 336.094C371.308 336.151 371.262 336.203 371.212 336.249C369.246 337.921 367.436 339.346 365.023 341.463C362.178 343.982 363.152 343.755 359.851 346.77C357.851 348.587 355.791 346.161 356.558 345.273C360.118 341.215 359.652 339.439 360.126 336.424C360.26 335.828 360.565 335.309 360.988 334.958V334.958Z" fill="#263238"/>
<path d="M286.65 206.014C286.65 206.014 306.622 261.162 316.061 277.6C324.448 292.2 356.291 329.558 356.291 329.558C356.526 329.861 356.85 330.045 357.195 330.07C357.54 330.095 357.88 329.959 358.144 329.692L362.566 325.19C362.808 324.94 362.969 324.596 363.019 324.218C363.069 323.84 363.007 323.453 362.842 323.125C360.126 317.828 348.696 295.804 338.663 281.472C334.663 275.762 330.818 271.57 328.922 268.421C326.431 264.291 327.017 260.924 325.043 249.37C321.371 227.883 314.216 196.287 303.355 191.238L286.65 206.014Z" fill="#263238"/>
<path opacity="0.3" d="M248.092 361.835H166.728C165.423 361.863 164.128 361.559 162.929 360.94C161.73 360.322 160.655 359.406 159.775 358.251C158.895 357.096 158.23 355.73 157.825 354.244C157.421 352.757 157.285 351.185 157.427 349.63L175.305 104.917C175.585 101.609 176.868 98.5388 178.911 96.2877C180.954 94.0366 183.615 92.7609 186.39 92.702H267.754C269.06 92.6735 270.356 92.9787 271.556 93.5973C272.755 94.216 273.831 95.1339 274.711 96.2897C275.591 97.4456 276.256 98.813 276.66 100.301C277.064 101.788 277.199 103.362 277.055 104.917L259.177 349.63C258.895 352.937 257.612 356.004 255.569 358.253C253.526 360.502 250.866 361.777 248.092 361.835V361.835Z" fill="#004965"/>
<path d="M267.754 92.6608H186.39C183.615 92.7196 180.954 93.9953 178.911 96.2464C176.868 98.4975 175.585 101.568 175.305 104.876L157.427 349.589C157.285 351.143 157.421 352.716 157.825 354.202C158.23 355.689 158.895 357.055 159.775 358.21C160.655 359.364 161.73 360.281 162.929 360.899C164.128 361.517 165.423 361.822 166.728 361.794H248.092C250.866 361.735 253.526 360.461 255.569 358.212C257.612 355.963 258.895 352.895 259.177 349.589L277.055 104.876C277.199 103.321 277.064 101.747 276.66 100.259C276.256 98.7717 275.591 97.4043 274.711 96.2485C273.831 95.0926 272.755 94.1747 271.556 93.5561C270.356 92.9374 269.06 92.6322 267.754 92.6608V92.6608ZM254.652 349.63C254.494 351.468 253.78 353.173 252.645 354.423C251.509 355.673 250.031 356.381 248.489 356.414H167.124C166.399 356.43 165.679 356.26 165.013 355.916C164.347 355.573 163.749 355.063 163.26 354.421C162.77 353.78 162.401 353.02 162.175 352.194C161.95 351.368 161.874 350.494 161.952 349.63L179.83 104.917C179.986 103.078 180.699 101.37 181.835 100.118C182.971 98.8664 184.45 98.1564 185.994 98.1229H267.358C268.084 98.1074 268.805 98.2774 269.472 98.6217C270.139 98.9659 270.737 99.4765 271.226 100.119C271.716 100.762 272.085 101.523 272.31 102.35C272.535 103.177 272.61 104.052 272.53 104.917L254.652 349.63Z" fill="#004965"/>
<path opacity="0.6" d="M267.754 92.6608H186.39C183.615 92.7196 180.954 93.9953 178.911 96.2464C176.868 98.4975 175.585 101.568 175.305 104.876L157.427 349.589C157.285 351.143 157.421 352.716 157.825 354.202C158.23 355.689 158.895 357.055 159.775 358.21C160.655 359.364 161.73 360.281 162.929 360.899C164.128 361.517 165.423 361.822 166.728 361.794H248.092C250.866 361.735 253.526 360.461 255.569 358.212C257.612 355.963 258.895 352.895 259.177 349.589L277.055 104.876C277.199 103.321 277.064 101.747 276.66 100.259C276.256 98.7717 275.591 97.4043 274.711 96.2485C273.831 95.0926 272.755 94.1747 271.556 93.5561C270.356 92.9374 269.06 92.6322 267.754 92.6608V92.6608ZM254.652 349.63C254.494 351.468 253.78 353.173 252.645 354.423C251.509 355.673 250.031 356.381 248.489 356.414H167.124C166.399 356.43 165.679 356.26 165.013 355.916C164.347 355.573 163.749 355.063 163.26 354.421C162.77 353.78 162.401 353.02 162.175 352.194C161.95 351.368 161.874 350.494 161.952 349.63L179.83 104.917C179.986 103.078 180.699 101.37 181.835 100.118C182.971 98.8664 184.45 98.1564 185.994 98.1229H267.358C268.084 98.1074 268.805 98.2774 269.472 98.6217C270.139 98.9659 270.737 99.4765 271.226 100.119C271.716 100.762 272.085 101.523 272.31 102.35C272.535 103.177 272.61 104.052 272.53 104.917L254.652 349.63Z" fill="#0075A0"/>
<path d="M219.629 346.719H197.217C196.875 346.727 196.548 346.885 196.297 347.163C196.046 347.44 195.889 347.819 195.855 348.226C195.838 348.417 195.855 348.611 195.905 348.793C195.955 348.976 196.037 349.144 196.145 349.285C196.254 349.427 196.386 349.539 196.534 349.615C196.682 349.691 196.841 349.728 197.001 349.724H219.413C219.755 349.718 220.084 349.563 220.336 349.287C220.589 349.011 220.748 348.634 220.784 348.226C220.801 348.034 220.784 347.839 220.733 347.655C220.683 347.471 220.6 347.302 220.491 347.16C220.382 347.017 220.248 346.904 220.1 346.828C219.951 346.752 219.79 346.715 219.629 346.719V346.719Z" fill="#0075A0"/>
<path opacity="0.1" d="M219.077 206.509H195.355C194.593 206.527 193.837 206.349 193.136 205.988C192.436 205.628 191.808 205.093 191.294 204.418C190.78 203.744 190.392 202.947 190.156 202.079C189.92 201.211 189.841 200.292 189.924 199.385L192.002 170.959C192.166 169.03 192.914 167.24 194.106 165.927C195.297 164.614 196.848 163.87 198.467 163.834H222.198C222.959 163.819 223.715 163.997 224.415 164.358C225.114 164.72 225.741 165.255 226.255 165.929C226.769 166.602 227.157 167.399 227.394 168.267C227.63 169.134 227.71 170.052 227.628 170.959L225.551 199.385C225.387 201.315 224.637 203.107 223.444 204.42C222.251 205.733 220.697 206.476 219.077 206.509V206.509Z" fill="black"/>
<path d="M216.491 203.412H192.769C192.007 203.429 191.251 203.251 190.55 202.891C189.85 202.53 189.222 201.995 188.708 201.321C188.194 200.647 187.806 199.849 187.57 198.981C187.334 198.113 187.255 197.195 187.338 196.287L189.416 167.861C189.58 165.932 190.328 164.142 191.52 162.829C192.711 161.516 194.262 160.772 195.881 160.737H219.612C220.373 160.721 221.129 160.9 221.829 161.261C222.528 161.622 223.155 162.157 223.669 162.831C224.183 163.505 224.571 164.302 224.808 165.169C225.044 166.036 225.124 166.954 225.042 167.861L222.965 196.287C222.801 198.218 222.051 200.009 220.858 201.322C219.665 202.635 218.111 203.379 216.491 203.412V203.412Z" fill="#004965"/>
<path d="M210.173 179.477C210.578 173.963 206.725 169.503 201.467 169.503C196.208 169.503 191.709 173.963 191.312 179.477C190.993 183.824 193.364 187.521 196.941 188.873C196.445 190.03 195.654 190.967 194.683 191.548C194.855 191.675 195.037 191.782 195.226 191.868C196.191 192.242 197.235 192.203 198.179 191.757C199.122 191.31 199.907 190.484 200.398 189.421C205.432 189.214 209.785 184.826 210.173 179.477Z" fill="#0075A0"/>
<path d="M221.094 184.248C221.43 179.704 218.215 175.987 213.914 175.987C213.158 175.989 212.405 176.104 211.673 176.328C211.852 177.346 211.907 178.389 211.836 179.426C211.65 181.394 211.086 183.284 210.189 184.948C209.292 186.612 208.086 188.005 206.664 189.018C207.319 190.029 208.151 190.855 209.101 191.438C210.051 192.022 211.097 192.348 212.164 192.394C212.295 192.809 212.493 193.189 212.747 193.512C213.001 193.835 213.306 194.095 213.644 194.276C213.982 194.458 214.347 194.557 214.717 194.569C215.087 194.581 215.456 194.505 215.802 194.346C215.955 194.277 216.104 194.198 216.25 194.108C215.6 193.664 215.107 192.952 214.862 192.105C218.198 191.176 220.818 188.016 221.094 184.248Z" fill="#0075A0"/>
<path opacity="0.1" d="M208.199 294.482H190.554C189.987 294.495 189.424 294.363 188.903 294.095C188.383 293.827 187.915 293.429 187.533 292.928C187.15 292.427 186.861 291.834 186.685 291.189C186.509 290.543 186.45 289.86 186.511 289.185L188.054 268.049C188.176 266.611 188.734 265.277 189.622 264.299C190.51 263.321 191.666 262.767 192.872 262.742H210.518C211.085 262.729 211.649 262.861 212.17 263.13C212.692 263.398 213.159 263.797 213.542 264.299C213.925 264.802 214.213 265.396 214.389 266.042C214.565 266.689 214.623 267.373 214.56 268.049L213.017 289.185C212.895 290.622 212.337 291.955 211.449 292.931C210.561 293.907 209.404 294.459 208.199 294.482V294.482Z" fill="black"/>
<path opacity="0.1" d="M234.093 253.345H212.052C211.343 253.361 210.64 253.195 209.99 252.86C209.339 252.524 208.755 252.025 208.278 251.398C207.801 250.771 207.441 250.029 207.222 249.221C207.003 248.414 206.931 247.56 207.009 246.717L208.931 220.294C209.085 218.496 209.785 216.827 210.897 215.606C212.009 214.384 213.457 213.693 214.965 213.665H237.033C237.741 213.651 238.443 213.818 239.093 214.154C239.743 214.49 240.326 214.989 240.803 215.616C241.28 216.243 241.64 216.984 241.86 217.791C242.079 218.597 242.153 219.45 242.075 220.294L240.153 246.717C239.999 248.52 239.296 250.192 238.178 251.415C237.061 252.637 235.607 253.325 234.093 253.345V253.345Z" fill="black"/>
<path d="M231.507 250.248H209.466C208.757 250.263 208.054 250.098 207.404 249.762C206.753 249.426 206.169 248.928 205.692 248.301C205.215 247.673 204.855 246.931 204.636 246.124C204.417 245.316 204.345 244.463 204.423 243.619L206.345 217.196C206.499 215.398 207.199 213.73 208.311 212.508C209.423 211.286 210.871 210.596 212.379 210.567H234.447C235.155 210.553 235.857 210.72 236.507 211.057C237.157 211.393 237.74 211.891 238.217 212.518C238.694 213.145 239.054 213.887 239.274 214.693C239.493 215.5 239.567 216.353 239.489 217.196L237.567 243.619C237.413 245.422 236.71 247.095 235.592 248.317C234.475 249.54 233.021 250.227 231.507 250.248V250.248Z" fill="#004965"/>
<path d="M205.613 291.385H187.968C187.401 291.397 186.838 291.265 186.317 290.997C185.797 290.729 185.329 290.332 184.947 289.83C184.564 289.329 184.275 288.736 184.099 288.091C183.923 287.446 183.864 286.763 183.925 286.088L185.468 264.951C185.59 263.514 186.148 262.18 187.036 261.202C187.924 260.224 189.08 259.669 190.286 259.644H207.932C208.499 259.631 209.063 259.763 209.584 260.032C210.106 260.3 210.573 260.699 210.956 261.202C211.339 261.704 211.627 262.298 211.803 262.945C211.979 263.591 212.037 264.276 211.974 264.951L210.431 286.088C210.309 287.524 209.751 288.857 208.863 289.833C207.975 290.81 206.818 291.362 205.613 291.385V291.385Z" fill="#004965"/>
<path d="M232.955 219.509H212.483C211.836 219.506 211.211 219.794 210.732 220.316C210.253 220.837 209.955 221.555 209.897 222.328L208.75 238.518C208.719 238.876 208.751 239.238 208.845 239.58C208.938 239.922 209.092 240.237 209.295 240.502C209.498 240.768 209.746 240.979 210.022 241.121C210.298 241.263 210.596 241.333 210.897 241.327H231.361C232.007 241.33 232.63 241.044 233.109 240.524C233.588 240.004 233.886 239.289 233.947 238.518L235.128 222.348C235.164 221.985 235.134 221.617 235.04 221.269C234.947 220.921 234.792 220.601 234.585 220.332C234.379 220.062 234.127 219.849 233.845 219.707C233.564 219.565 233.261 219.497 232.955 219.509V219.509ZM217.276 230.392L210.423 237.94L211.526 222.844L217.276 230.392ZM212.776 221.46H232.369L222.465 232.374C222.375 232.483 222.268 232.569 222.151 232.627C222.033 232.686 221.907 232.716 221.78 232.716C221.652 232.716 221.526 232.686 221.408 232.627C221.291 232.569 221.184 232.483 221.094 232.374L212.776 221.46ZM218.327 231.786L219.836 233.768C220.062 234.06 220.337 234.292 220.643 234.448C220.949 234.605 221.279 234.683 221.612 234.677C222.319 234.671 222.999 234.347 223.517 233.768L225.318 231.786L231.094 239.365H211.449L218.327 231.786ZM226.568 230.402L233.464 222.854L232.361 237.95L226.568 230.402Z" fill="#0075A0"/>
<path d="M189.855 269.815L195.027 272.344L200.717 267.667L196.441 273.738L199.579 279.046L204.553 264.26L189.855 269.815Z" fill="#0075A0"/>
<path d="M194.674 273.749L197.001 277.156H194.519L194.674 273.749Z" fill="#0075A0"/>
<path d="M192.614 278.199L192.071 277.786C192.229 277.479 192.405 277.186 192.597 276.908L193.088 277.414C192.915 277.662 192.757 277.925 192.614 278.199Z" fill="#0075A0"/>
<path d="M192.355 283.289C191.818 282.934 191.419 282.341 191.243 281.637L191.864 281.431C192.009 281.947 192.319 282.374 192.726 282.618L192.355 283.289ZM191.812 280.625L191.166 280.563C191.229 279.889 191.396 279.235 191.657 278.633L192.243 278.984C192.016 279.494 191.87 280.051 191.812 280.625V280.625Z" fill="#0075A0"/>
<path d="M205.389 286.015L204.751 285.881C204.781 285.694 204.796 285.504 204.794 285.313C204.814 284.983 204.731 284.656 204.561 284.394L205.061 283.899C205.321 284.303 205.456 284.803 205.44 285.313C205.439 285.548 205.422 285.783 205.389 286.015V286.015ZM196.226 284.229H195.553V283.455C196.067 283.485 196.582 283.485 197.096 283.455V284.229H196.226ZM197.95 284.146V283.372C198.475 283.372 199.001 283.269 199.51 283.207L199.57 283.981L197.95 284.146ZM194.752 284.146H194.484C194.031 284.075 193.583 283.954 193.148 283.785L193.355 283.052C193.75 283.21 194.157 283.32 194.571 283.382H194.821L194.752 284.146ZM204.061 283.991C203.599 283.813 203.115 283.729 202.63 283.744V282.918C203.195 282.9 203.758 283.001 204.294 283.217L204.061 283.991ZM200.311 283.899L200.251 283.124C200.803 283.062 201.337 283.011 201.829 282.98V283.754C201.372 283.754 200.846 283.806 200.303 283.868L200.311 283.899Z" fill="#0075A0"/>
<path d="M204.854 287.977L204.259 287.667C204.38 287.337 204.484 287.017 204.561 286.738L205.173 286.976C205.087 287.285 204.984 287.616 204.854 287.977Z" fill="#0075A0"/>
<path opacity="0.1" d="M228.775 158.052H208.949C208.311 158.065 207.678 157.916 207.092 157.613C206.506 157.311 205.981 156.862 205.551 156.298C205.122 155.733 204.797 155.065 204.6 154.338C204.402 153.612 204.336 152.843 204.406 152.084L206.13 128.335C206.267 126.719 206.893 125.22 207.891 124.12C208.888 123.02 210.188 122.397 211.543 122.367H231.369C232.007 122.354 232.64 122.503 233.226 122.806C233.812 123.108 234.337 123.557 234.767 124.121C235.197 124.686 235.521 125.354 235.719 126.08C235.916 126.807 235.982 127.576 235.912 128.335L234.188 152.084C234.051 153.699 233.425 155.199 232.427 156.299C231.43 157.399 230.13 158.022 228.775 158.052V158.052Z" fill="black"/>
<path d="M226.189 154.954H206.363C205.725 154.968 205.092 154.818 204.506 154.516C203.92 154.213 203.395 153.765 202.965 153.2C202.536 152.635 202.211 151.968 202.014 151.241C201.816 150.514 201.75 149.746 201.82 148.986L203.544 125.238C203.681 123.622 204.307 122.122 205.305 121.023C206.302 119.923 207.602 119.299 208.957 119.27H228.783C229.421 119.256 230.054 119.406 230.64 119.708C231.226 120.011 231.751 120.459 232.181 121.024C232.611 121.588 232.935 122.256 233.132 122.983C233.33 123.709 233.396 124.478 233.326 125.238L231.602 148.986C231.465 150.602 230.839 152.101 229.841 153.201C228.844 154.301 227.544 154.925 226.189 154.954V154.954Z" fill="#004965"/>
<path d="M227.249 141.944C227.119 137.765 225.756 133.777 223.403 130.688C221.05 127.599 217.859 125.609 214.397 125.072C213.384 124.475 212.23 124.316 211.131 124.621C210.031 124.925 209.053 125.676 208.363 126.745C206.639 129.254 208.173 130.875 210.087 132.672C212 134.468 213.716 135.842 215.414 133.333C216.051 132.414 216.444 131.289 216.543 130.101C218.135 130.879 219.562 132.073 220.72 133.595C221.879 135.116 222.74 136.928 223.241 138.898C222.25 138.904 221.284 139.263 220.465 139.931C218.232 141.748 219.215 143.865 220.551 146.374C221.887 148.883 223.077 150.824 225.301 148.996C226.25 148.266 226.962 147.167 227.316 145.883C227.671 144.6 227.647 143.209 227.249 141.944V141.944Z" fill="#0075A0"/>
<path d="M218.948 88.5512H232.481C233.154 88.5512 233.24 87.3121 232.576 87.3121H219.06C218.396 87.3121 218.301 88.5512 218.965 88.5512H218.948Z" fill="#004965"/>
<path d="M237.438 88.5512H241.36C242.032 88.5512 242.118 87.3121 241.455 87.3121H237.567C236.903 87.3121 236.809 88.5512 237.481 88.5512H237.438Z" fill="#004965"/>
<g opacity="0.3">
<path opacity="0.3" d="M218.948 88.5512H232.481C233.154 88.5512 233.24 87.3121 232.576 87.3121H219.06C218.396 87.3121 218.301 88.5512 218.965 88.5512H218.948Z" fill="#0075A0"/>
</g>
<g opacity="0.3">
<path opacity="0.3" d="M237.438 88.5512H241.36C242.032 88.5512 242.118 87.3121 241.455 87.3121H237.567C236.903 87.3121 236.809 88.5512 237.481 88.5512H237.438Z" fill="#0075A0"/>
</g>
<path d="M263.513 213.809L262.324 230C262.312 230.164 262.356 230.327 262.445 230.453C262.534 230.579 262.661 230.657 262.798 230.671C262.935 230.685 263.071 230.632 263.176 230.526C263.281 230.419 263.347 230.267 263.358 230.103C263.749 224.713 264.143 219.316 264.539 213.913C264.537 213.759 264.488 213.611 264.4 213.499C264.313 213.387 264.193 213.317 264.065 213.304C263.937 213.291 263.81 213.336 263.708 213.429C263.606 213.523 263.537 213.658 263.513 213.809V213.809Z" fill="#004965"/>
<path d="M261.893 235.926L261.557 240.583C261.558 240.737 261.608 240.884 261.696 240.997C261.783 241.109 261.903 241.179 262.03 241.192C262.158 241.204 262.286 241.16 262.388 241.067C262.49 240.973 262.559 240.838 262.582 240.687L262.919 236.04C262.919 235.885 262.871 235.736 262.784 235.622C262.697 235.508 262.577 235.436 262.449 235.422C262.32 235.408 262.192 235.452 262.089 235.545C261.986 235.638 261.916 235.774 261.893 235.926V235.926Z" fill="#004965"/>
<g opacity="0.3">
<path opacity="0.3" d="M263.513 213.809L262.324 230C262.312 230.164 262.356 230.327 262.445 230.453C262.534 230.579 262.661 230.657 262.798 230.671C262.935 230.685 263.071 230.632 263.176 230.526C263.281 230.419 263.347 230.267 263.358 230.103C263.749 224.713 264.143 219.316 264.539 213.913C264.537 213.759 264.488 213.611 264.4 213.499C264.313 213.387 264.193 213.317 264.065 213.304C263.937 213.291 263.81 213.336 263.708 213.429C263.606 213.523 263.537 213.658 263.513 213.809V213.809Z" fill="#0075A0"/>
</g>
<g opacity="0.3">
<path opacity="0.3" d="M261.893 235.926L261.557 240.583C261.558 240.737 261.608 240.884 261.696 240.997C261.783 241.109 261.903 241.179 262.03 241.192C262.158 241.204 262.286 241.16 262.388 241.067C262.49 240.973 262.559 240.838 262.582 240.687L262.919 236.04C262.919 235.885 262.871 235.736 262.784 235.622C262.697 235.508 262.577 235.436 262.449 235.422C262.32 235.408 262.192 235.452 262.089 235.545C261.986 235.638 261.916 235.774 261.893 235.926V235.926Z" fill="#0075A0"/>
</g>
<path d="M143.825 141.758C143.825 141.758 138.825 140.943 139.428 144.061C139.868 146.332 141.549 141.861 143.825 141.758Z" fill="#263238"/>
<path d="M139.48 148.841C139.48 148.841 143.6 148.79 144.238 139.796C144.238 139.796 148.169 138.155 150.402 141.087C152.634 144.019 147.505 149.698 150.333 152.652C150.333 152.652 147.505 154.5 139.48 148.841Z" fill="#FF8B7B"/>
<path d="M154.729 117.07C154.729 117.07 160.039 115.707 161.418 120.384C162.797 125.062 153.557 123.007 153.557 123.007L154.729 117.07Z" fill="#263238"/>
<path opacity="0.3" d="M154.729 117.07C154.729 117.07 160.039 115.707 161.418 120.384C162.797 125.062 153.557 123.007 153.557 123.007L154.729 117.07Z" fill="black"/>
<path d="M159.073 128.728C159.16 128.129 159.487 127.695 159.815 127.767C160.142 127.84 160.34 128.366 160.254 128.965C160.168 129.564 159.832 129.998 159.513 129.936C159.194 129.874 158.987 129.326 159.073 128.728Z" fill="#263238"/>
<path d="M159.332 129.853L161.651 134.355C161.211 134.68 160.713 134.877 160.198 134.929C159.683 134.981 159.165 134.887 158.685 134.654L159.332 129.853Z" fill="#FF5652"/>
<path d="M141.773 125.836C141.48 133.488 141.221 136.73 144.075 141.036C148.617 145.641 156.289 146.281 158.479 138.877C160.453 132.228 160.599 120.86 154.651 116.998C153.344 116.148 151.877 115.713 150.39 115.734C148.903 115.755 147.445 116.231 146.155 117.116C144.865 118.002 143.785 119.268 143.018 120.794C142.251 122.32 141.822 124.056 141.773 125.836V125.836Z" fill="#FF8B7B"/>
<path d="M158.272 126.838C158.314 126.866 158.361 126.881 158.41 126.881C158.458 126.881 158.505 126.866 158.548 126.838C158.844 126.569 159.188 126.388 159.554 126.309C159.919 126.231 160.295 126.256 160.651 126.384C160.723 126.417 160.803 126.416 160.874 126.379C160.945 126.342 161.001 126.273 161.03 126.187C161.059 126.1 161.058 126.002 161.027 125.915C160.996 125.828 160.939 125.759 160.866 125.723C160.419 125.549 159.943 125.507 159.48 125.6C159.016 125.694 158.578 125.92 158.203 126.26C158.171 126.284 158.143 126.315 158.121 126.352C158.1 126.389 158.085 126.431 158.077 126.475C158.068 126.52 158.068 126.565 158.075 126.61C158.082 126.654 158.096 126.697 158.117 126.735V126.735C158.156 126.79 158.211 126.826 158.272 126.838V126.838Z" fill="#263238"/>
<path d="M136.584 150.39C136.584 150.39 138.359 144.515 145.712 148.263C153.065 152.012 153.755 157.174 153.755 157.174L136.584 150.39Z" fill="#263238"/>
<path opacity="0.4" d="M136.584 150.39C136.584 150.39 138.359 144.515 145.712 148.263C153.065 152.012 153.755 157.174 153.755 157.174L136.584 150.39Z" fill="black"/>
<path d="M139.885 261.74C139.885 261.74 138.842 272.448 138.342 275.989C137.894 279.087 123.688 360.348 123.688 360.348L117.232 359.068C117.232 359.068 116.516 317.9 121.49 290.651C122.516 285.076 124.576 280.408 125.326 276.144C125.929 272.726 125.016 262.153 125.016 262.153L139.885 261.74Z" fill="#FF8B7B"/>
<path d="M112.922 259.995C112.922 259.995 109.914 269.804 108.508 272.84C106.983 276.144 101.19 285.137 101.19 285.137L70.3305 337.002L64.4258 332.531C64.4258 332.531 73.3302 303.971 86.743 280.718C89.941 275.173 94.5441 270.95 97.087 265.447C98.5265 262.287 99.7505 251.384 99.7505 251.384L112.922 259.995Z" fill="#FF8B7B"/>
<path d="M121.197 160.706C121.197 160.706 113.81 171.991 114.439 176.731C115.068 181.47 126.645 187.242 126.645 187.242L129.584 182.234L121.981 175.585L129.222 165.641L121.197 160.706Z" fill="#FF8B7B"/>
<path d="M133.412 149.409C132.489 148.883 128.395 146.921 119.559 160.674C119.559 160.674 122.775 165.476 129.662 168.336C129.662 168.305 137.42 151.65 133.412 149.409Z" fill="#263238"/>
<path opacity="0.4" d="M129.662 168.305C129.662 168.305 130.955 165.538 132.248 162.11C132.041 156.214 131.438 148.893 129.714 151.526C127.421 155.016 124.249 162.048 123.206 164.402C125.201 166.046 127.373 167.358 129.662 168.305V168.305Z" fill="black"/>
<path d="M122.706 195.151C131.196 200.641 140.575 203.874 150.203 204.63L140.239 271.136C140.239 271.136 111.5 271.023 96.4749 253.924C96.4749 253.882 102.466 217.64 122.706 195.151Z" fill="#004965"/>
<path d="M121.49 195.296C121.49 195.296 132.998 205.456 151.324 204.764C151.324 204.764 161.849 169.885 155.255 158.083C151.177 150.793 135.524 147.499 131.308 149.575C126.231 152.073 129.171 173.943 121.49 195.296Z" fill="#263238"/>
<path opacity="0.4" d="M150.427 163.793L148.393 165.589C150.022 172.38 152.586 178.798 155.979 184.578C156.849 179.712 157.331 174.757 157.418 169.782L152.884 165.207L150.427 163.793Z" fill="black"/>
<path d="M161.961 168.832L168.857 180.344L186.192 181.728L189.373 178.558C189.584 178.343 189.846 178.214 190.123 178.186L199.38 177.309C199.447 177.304 199.514 177.317 199.576 177.345C199.639 177.374 199.695 177.418 199.742 177.474C199.79 177.531 199.826 177.599 199.85 177.673C199.874 177.748 199.884 177.828 199.88 177.908L199.829 178.847C199.819 178.981 199.771 179.107 199.692 179.204C199.614 179.3 199.51 179.36 199.398 179.374L195.01 179.787L194.148 185.166C194.098 185.469 193.978 185.749 193.801 185.974C193.624 186.198 193.398 186.359 193.148 186.436L189.7 187.469C189.48 187.542 189.248 187.542 189.028 187.469L186.597 186.736C186.597 186.736 173.089 189.999 166.892 188.687C160.694 187.376 154.582 175.264 154.582 175.264L161.961 168.832Z" fill="#FF8B7B"/>
<path d="M153.979 177.598C153.979 177.598 142.876 159.807 149.729 155.677C156.582 151.547 163.78 169.823 163.78 169.823C163.78 169.823 160.97 174.965 153.979 177.598Z" fill="#263238"/>
<path d="M125.102 359.884C125.069 359.875 125.039 359.855 125.015 359.826C124.992 359.796 124.977 359.759 124.973 359.718C124.968 359.676 124.973 359.633 124.988 359.594C125.004 359.556 125.028 359.524 125.059 359.502C125.171 359.44 127.714 357.839 128.895 358.293C129.004 358.331 129.106 358.394 129.195 358.479C129.283 358.564 129.357 358.67 129.412 358.789C129.49 358.916 129.532 359.07 129.532 359.228C129.532 359.386 129.49 359.539 129.412 359.667C128.79 360.16 128.037 360.358 127.3 360.224C126.56 360.195 125.824 360.081 125.102 359.884V359.884ZM125.662 359.636C126.981 359.894 128.783 359.966 129.11 359.419C129.162 359.357 129.214 359.233 129.11 358.975C129.079 358.9 129.034 358.834 128.979 358.782C128.924 358.731 128.86 358.694 128.791 358.676C128.686 358.634 128.575 358.613 128.464 358.614C127.484 358.738 126.533 359.085 125.662 359.636V359.636Z" fill="#004965"/>
<path d="M124.99 359.873C124.965 359.854 124.945 359.826 124.932 359.793C124.92 359.76 124.916 359.723 124.921 359.687C124.921 359.574 125.197 357.282 126.128 356.425C126.262 356.3 126.416 356.21 126.581 356.158C126.745 356.107 126.916 356.096 127.085 356.125C127.55 356.197 127.679 356.487 127.697 356.724C127.817 357.684 126.042 359.46 125.171 359.884H125.102C125.065 359.895 125.025 359.892 124.99 359.873ZM126.955 356.497C126.743 356.484 126.534 356.564 126.369 356.724C125.81 357.436 125.448 358.338 125.335 359.305C126.197 358.717 127.412 357.323 127.386 356.734C127.386 356.683 127.386 356.538 127.059 356.497H126.955Z" fill="#004965"/>
<path d="M124.412 358.655L116.654 358.304C116.511 358.298 116.371 358.352 116.256 358.455C116.142 358.558 116.06 358.705 116.025 358.872L114.379 366.399C114.307 366.718 114.344 367.058 114.482 367.344C114.619 367.63 114.845 367.84 115.111 367.927C115.186 367.942 115.261 367.942 115.335 367.927C118.146 367.999 120.645 367.927 124.145 368.092C128.274 368.278 127.205 368.815 132.058 369.125C134.98 369.3 135.636 365.346 134.403 365.098C128.757 363.993 128.231 361.907 126.119 359.378C125.641 358.898 125.035 358.642 124.412 358.655V358.655Z" fill="#263238"/>
<path d="M71.2959 337.508C71.2708 337.48 71.2527 337.443 71.2436 337.403C71.2344 337.363 71.2347 337.321 71.2442 337.281C71.255 337.242 71.2758 337.208 71.3037 337.184C71.3315 337.16 71.365 337.147 71.3993 337.147C71.5286 337.147 74.3991 337.147 75.287 338.18C75.4532 338.373 75.5519 338.635 75.5628 338.913C75.58 339.069 75.556 339.227 75.4942 339.366C75.4324 339.505 75.3358 339.617 75.218 339.687C74.474 339.787 73.7255 339.555 73.1147 339.037C72.4711 338.594 71.8623 338.083 71.2959 337.508V337.508ZM71.8907 337.591C72.9682 338.531 74.5543 339.563 75.0715 339.264C75.1404 339.264 75.2266 339.16 75.218 338.861C75.2187 338.776 75.2036 338.692 75.1738 338.616C75.144 338.539 75.1002 338.471 75.0456 338.417C74.966 338.326 74.876 338.25 74.7784 338.19C73.8528 337.793 72.8733 337.607 71.8907 337.643V337.591Z" fill="#004965"/>
<path d="M71.227 337.446C71.2099 337.416 71.2008 337.38 71.2008 337.343C71.2008 337.306 71.2099 337.27 71.227 337.24C71.2787 337.157 72.3734 335.247 73.5371 334.989C73.7018 334.95 73.8712 334.951 74.0356 334.992C74.1999 335.033 74.3557 335.112 74.4939 335.226C74.8818 335.546 74.8991 335.877 74.8215 336.094C74.5629 337.023 72.3131 337.653 71.3735 337.56C71.3512 337.569 71.3268 337.569 71.3045 337.56C71.2674 337.535 71.2396 337.495 71.227 337.446V337.446ZM74.2526 335.505C74.0685 335.374 73.8503 335.33 73.6406 335.381C72.8732 335.72 72.2112 336.333 71.7442 337.137C72.7786 337.137 74.3302 336.476 74.5457 335.949C74.5457 335.897 74.5974 335.753 74.3388 335.546H74.2526V335.505Z" fill="#004965"/>
<path d="M71.1407 336.042L64.3223 331.52C64.1975 331.436 64.0527 331.406 63.9117 331.434C63.7707 331.462 63.6419 331.547 63.5465 331.674L59.2365 337.508C59.1447 337.63 59.0739 337.773 59.0282 337.928C58.9824 338.082 58.9625 338.246 58.9697 338.41C58.9769 338.574 59.0111 338.735 59.0702 338.883C59.1292 339.031 59.2121 339.164 59.3141 339.274L59.4951 339.429C61.9777 341.009 64.2447 342.299 67.3048 344.334C70.9166 346.729 69.7615 346.636 73.9767 349.496C76.5627 351.241 78.597 348.061 77.5885 347.173C72.9682 343.136 73.2785 340.978 72.3475 337.591C72.1097 336.921 71.6825 336.372 71.1407 336.042V336.042Z" fill="#263238"/>
<path d="M152.574 132.414C152.574 132.414 155.16 131.381 154.212 126.89C154.212 126.89 155.737 123.792 155.496 122.15C155.496 122.15 163.254 116.791 158.823 110.916C154.393 105.041 146.35 108.965 142.79 116.471C142.79 116.471 123.869 123.844 137.041 137.7C149.859 151.237 152.574 132.414 152.574 132.414Z" fill="#263238"/>
<path d="M144.764 119.62C144.764 119.62 141.808 111.845 146.247 105.97C150.686 100.095 143.299 114.251 144.764 119.62Z" fill="#263238"/>
<path d="M152.574 132.414C152.648 132.385 152.72 132.351 152.789 132.31C152.789 126.487 150.919 119.507 143.747 114.757C143.402 115.314 143.083 115.894 142.79 116.492C142.79 116.492 142.247 116.709 141.411 117.122C143.894 120.281 150.712 130.741 143.049 142.171C150.729 145.042 152.574 132.414 152.574 132.414Z" fill="#004965"/>
<path d="M152.876 129.688C153.756 130.843 154.218 132.369 154.16 133.931C154.065 135.997 152.376 136.399 151.031 135.284C149.815 134.252 148.402 131.98 149.16 130.121C149.331 129.727 149.581 129.389 149.889 129.14C150.196 128.891 150.55 128.738 150.92 128.695C151.289 128.652 151.661 128.72 152.003 128.893C152.345 129.067 152.645 129.34 152.876 129.688V129.688Z" fill="#FF8B7B"/>
<path d="M159.694 127.778L161.09 127.695C161.09 127.695 160.177 128.738 159.694 127.778Z" fill="#263238"/>
<path opacity="0.2" d="M146.911 143.183C147.61 144.877 148.687 146.306 150.022 147.313C150.324 146.376 150.586 145.422 150.807 144.453C149.457 144.301 148.139 143.872 146.911 143.183V143.183Z" fill="black"/>
</svg>
